<svg xmlns="http://www.w3.org/2000/svg" xmlns:xlink="http://www.w3.org/1999/xlink" version="1.1" id="Layer_1" x="0px" y="0px" width="100px" height="100px" viewBox="0 0 100 100" enable-background="new 0 0 100 100" xml:space="preserve">
<g>
	<g>
		<path fill-rule="evenodd" clip-rule="evenodd" fill="none" d="M104.178,97.924c-30.24,0-60.481,0-90.736,0    c0-30.229,0-60.462,0-90.721c30.235,0,60.486,0,90.736,0C104.178,37.435,104.178,67.678,104.178,97.924z M69.89,86.837    c-0.48-1.196-0.931-2.371-1.421-3.528c-1.133-2.665-1.754-5.428-1.717-8.335c0.029-2.245,0.088-4.493-0.005-6.733    c-0.061-1.464-0.233-2.951-0.593-4.369c-0.775-3.066-3.053-4.793-5.792-6.02c-1.145-0.512-2.302-0.996-3.552-1.535    c0.531-0.348,0.982-0.645,1.547-1.014c-1.063-0.303-1.992-0.567-3.026-0.862c0.274-0.195,0.438-0.313,0.604-0.431    c4.269-3.017,6.641-7.227,7.061-12.337c0.696-8.481-2.641-15.267-9.512-20.216c-4.166-3-8.893-4.258-13.992-3.174    c-7.22,1.535-12.248,7.538-12.754,14.975c-0.38,5.583,1.076,10.654,4.481,15.087c4.048,5.271,9.298,8.338,16.107,8.336    c2.178,0,4.25-0.508,6.432-1.397c-0.272,1.116-0.507,2.079-0.773,3.174c0.754-0.429,1.364-0.774,1.86-1.057    c1.829,0.942,3.558,1.832,5.284,2.72c2.371,1.219,4.289,2.889,4.971,5.563c0.361,1.414,0.547,2.901,0.592,4.363    c0.09,2.83-0.055,5.669,0.043,8.499c0.111,3.197,1.445,6.074,2.564,9.058c0.408-0.181,0.732-0.318,1.05-0.467    C69.504,87.063,69.65,86.97,69.89,86.837z"/>
		<path fill-rule="evenodd" clip-rule="evenodd" d="M69.89,86.837c-0.239,0.133-0.386,0.226-0.541,0.298    c-0.317,0.148-0.642,0.286-1.05,0.467c-1.119-2.983-2.453-5.86-2.564-9.058c-0.098-2.83,0.047-5.669-0.043-8.499    c-0.045-1.462-0.23-2.949-0.592-4.363c-0.682-2.674-2.6-4.344-4.971-5.563c-1.727-0.888-3.455-1.777-5.284-2.72    c-0.496,0.282-1.106,0.628-1.86,1.057c0.267-1.095,0.501-2.058,0.773-3.174c-2.182,0.89-4.253,1.397-6.432,1.397    c-6.81,0.002-12.059-3.064-16.107-8.336c-3.405-4.433-4.861-9.503-4.481-15.087c0.507-7.437,5.534-13.439,12.754-14.975    c5.099-1.084,9.826,0.173,13.992,3.174c6.871,4.949,10.208,11.735,9.512,20.216c-0.42,5.111-2.792,9.321-7.061,12.337    c-0.166,0.117-0.33,0.235-0.604,0.431c1.034,0.295,1.964,0.56,3.026,0.862c-0.564,0.369-1.016,0.666-1.547,1.014    c1.25,0.539,2.407,1.023,3.552,1.535c2.739,1.227,5.017,2.953,5.792,6.02c0.359,1.418,0.532,2.905,0.593,4.369    c0.093,2.24,0.034,4.488,0.005,6.733c-0.037,2.907,0.584,5.67,1.717,8.335C68.959,84.466,69.409,85.641,69.89,86.837z     M32.404,42.581c0.151-0.108,0.303-0.217,0.455-0.326c-2.444-5.008-2.236-9.892,0.551-14.733    c-0.408,0.131-0.766,0.295-0.974,0.572c-2.979,3.971-3.11,9.506-0.358,13.677C32.235,42.009,32.297,42.31,32.404,42.581z"/>
		<path fill-rule="evenodd" clip-rule="evenodd" fill="none" d="M32.404,42.581c-0.106-0.271-0.168-0.572-0.325-0.81    c-2.752-4.17-2.622-9.706,0.358-13.677c0.208-0.277,0.566-0.441,0.974-0.572c-2.787,4.841-2.996,9.725-0.551,14.733    C32.707,42.364,32.555,42.473,32.404,42.581z"/>
	</g>
</g>
</svg>